<?xml version="1.0" encoding="utf-8"?>
<!-- Generator: Adobe Illustrator 23.0.3, SVG Export Plug-In . SVG Version: 6.00 Build 0)  -->
<svg version="1.1" id="Layer_1" xmlns="http://www.w3.org/2000/svg" xmlns:xlink="http://www.w3.org/1999/xlink" x="0px" y="0px"
	 viewBox="0 0 15 10" style="enable-background:new 0 0 15 10;" xml:space="preserve">
<style type="text/css">
	.st0{fill-rule:evenodd;clip-rule:evenodd;fill:#FFFFFF;stroke:#FFFFFF;}
</style>
<path class="st0" d="M14,2.1c0,0.1-0.1,0.2-0.1,0.3L7.8,8.9C7.7,8.9,7.6,9,7.5,9S7.3,8.9,7.2,8.9L1.1,2.5C1.1,2.4,1,2.3,1,2.1
	C1,2,1.1,1.9,1.1,1.8l0.7-0.7C1.9,1.1,2,1,2.1,1c0.1,0,0.2,0.1,0.3,0.1l5.1,5.4l5.1-5.4C12.7,1.1,12.8,1,12.9,1
	c0.1,0,0.2,0.1,0.3,0.1l0.7,0.7C13.9,1.9,14,2,14,2.1z"/>
</svg>
